<svg xmlns="http://www.w3.org/2000/svg" xmlns:xlink="http://www.w3.org/1999/xlink" viewBox="0 0 48.19 48.19"><defs><style>.cls-1,.cls-4,.cls-5{fill:none;}.cls-2{fill:#7aa14b;}.cls-3{clip-path:url(#clip-path);}.cls-4{stroke:#fff;stroke-width:14.17px;}.cls-4,.cls-5{stroke-miterlimit:10;}.cls-5{stroke:#7aa14b;stroke-width:2.13px;stroke-dasharray:8.5 5.67;}.cls-6{clip-path:url(#clip-path-2);}.cls-7{fill:#fff;}</style><clipPath id="clip-path"><circle class="cls-1" cx="24.09" cy="24.09" r="23.49"/></clipPath><clipPath id="clip-path-2"><circle class="cls-1" cx="24.09" cy="-42.97" r="23.49"/></clipPath></defs><g id="Car_Tours" data-name="Car Tours"><circle class="cls-2" cx="24.09" cy="24.09" r="23.49"/><g class="cls-3"><path class="cls-4" d="M52.31,7.11A15.73,15.73,0,1,0,27.42,26.36h0A15.74,15.74,0,0,1,2.53,45.62"/><path class="cls-5" d="M52.31,7.11A15.73,15.73,0,1,0,27.42,26.36h0A15.74,15.74,0,0,1,2.53,45.62"/></g></g><g id="Cycle_Rides" data-name="Cycle Rides"><g class="cls-6"><path class="cls-7" d="M9.48,4.06a4.38,4.38,0,0,1-.65.36c-1.4.48-1.49.43-1.95-.95-.32-1-.64-1.89-1-2.84C5.72,0,5.87-.28,6.52-.49,7.91-.93,8-.89,8.42.48c.32,1,.64,1.89.95,2.84A4.84,4.84,0,0,1,9.48,4.06Z"/><path class="cls-7" d="M2.63.48a2.31,2.31,0,0,1-.45.34,8.1,8.1,0,0,1-1,.3A.7.7,0,0,1,.27.6C-.13-.59-.53-1.78-.92-3c-.18-.57,0-.85.53-1,1.36-.43,1.54-.54,2,1,.28.94.62,1.86.92,2.79A4,4,0,0,1,2.63.48Z"/><path class="cls-7" d="M9.47,1.22a5,5,0,0,1,.65-.35C11.29.5,12.46.15,13.64-.19c.6-.18.89,0,1.11.58.49,1.38.45,1.46-.93,1.88L11,3.13c-.62.19-.94,0-1.14-.59C9.67,2.11,9.59,1.67,9.47,1.22Z"/><path class="cls-7" d="M-1.41.33A5.17,5.17,0,0,1-1,1c.4,1.18.8,2.35,1.18,3.54.17.51,0,.81-.52,1-1.44.49-1.55.44-2-1-.31-.93-.62-1.86-.92-2.8-.2-.62-.06-.9.57-1.08C-2.32.53-1.88.44-1.41.33Z"/><path class="cls-7" d="M11.82,4.43a2.24,2.24,0,0,1,.73,1.93,1,1,0,0,1-.52.38c-1.2.38-2.4.74-3.61,1.1a.71.71,0,0,1-1-.49c-.44-1.28-.73-1.6,1-2,.95-.25,1.88-.57,2.83-.84A2.74,2.74,0,0,1,11.82,4.43Z"/><path class="cls-7" d="M-3.89,13.54a3.12,3.12,0,0,1-.34-.49,7.8,7.8,0,0,1-.31-.93.62.62,0,0,1,.42-.86c1.28-.41,2.57-.78,3.85-1.17h.16c.52,0,.89.52,1,1.52a.7.7,0,0,1-.59.83c-1.19.36-2.37.72-3.56,1.06A2.85,2.85,0,0,1-3.89,13.54Z"/><path class="cls-7" d="M-1.35,8.86a2.27,2.27,0,0,1-.74-1.93,1,1,0,0,1,.52-.38C-.39,6.17.8,5.81,2,5.46A.74.74,0,0,1,3.05,6c.41,1.2.68,1.54-.94,2-1,.25-1.92.57-2.88.85A2.7,2.7,0,0,1-1.35,8.86Z"/><path class="cls-7" d="M5.36,12.57A5.08,5.08,0,0,1,5,11.93c-.52-1.38-.46-1.5.94-1.92l2.87-.86c.62-.18.89,0,1.11.58.5,1.41.48,1.45-1,1.89l-2.77.84A5.73,5.73,0,0,1,5.36,12.57Z"/><path class="cls-7" d="M5.79,2.74a4.67,4.67,0,0,1-.63.35C4,3.45,2.82,3.81,1.65,4.15c-.58.17-.87,0-1.08-.56C0,2.2.08,2.11,1.49,1.68c.79-.25,1.59-.49,2.38-.72,1.3-.38,1.37-.35,1.79,1A6.13,6.13,0,0,1,5.79,2.74Z"/><path class="cls-7" d="M5.41,3.87a5.17,5.17,0,0,1,.38.67C6.19,5.7,6.58,6.87,7,8c.19.6,0,.85-.55,1.05-1.41.48-1.5.43-2-1-.31-.93-.63-1.86-.94-2.8-.2-.61,0-.9.57-1.08C4.5,4.07,4.94,4,5.41,3.87Z"/><path class="cls-7" d="M3,8.54a4.87,4.87,0,0,1,.41.65c.4,1.18.79,2.36,1.18,3.54.18.56,0,.83-.54,1-1.43.49-1.52.44-2-1-.32-.94-.63-1.89-.94-2.85-.19-.59-.06-.86.55-1.05C2.06,8.74,2.5,8.65,3,8.54Z"/><path class="cls-7" d="M3,17.17a2.21,2.21,0,0,1-.69-1.81,1,1,0,0,1,.5-.46c1.21-.39,2.44-.76,3.67-1.12a.7.7,0,0,1,.94.48c.51,1.43.66,1.62-1,2-.91.25-1.81.56-2.73.81A3.4,3.4,0,0,1,3,17.17Z"/><path class="cls-7" d="M11.88-.64A2.68,2.68,0,0,1,10.16,0c-.45,0-.6-.39-.72-.77C9.09-1.86,8.71-2.95,8.35-4c-.2-.63-.06-.9.56-1.09,1.41-.46,1.49-.41,1.95,1,.31,1,.64,1.89.94,2.85A5.1,5.1,0,0,1,11.88-.64Z"/><path class="cls-7" d="M1.73,16.62A28.33,28.33,0,0,1-.93,15.2a1.78,1.78,0,0,1-.5-1.15c-.05-.36.31-.52.65-.63C.63,13,.69,13,1.14,14.44,1.37,15.15,1.53,15.89,1.73,16.62Z"/></g></g></svg>