<svg xmlns="http://www.w3.org/2000/svg" xmlns:xlink="http://www.w3.org/1999/xlink" viewBox="0 0 48.19 48.19"><defs><style>.cls-1{fill:none;}.cls-2{fill:#f28c00;}.cls-3{clip-path:url(#clip-path);}.cls-4{fill:#fff;}</style><clipPath id="clip-path"><circle class="cls-1" cx="24.09" cy="24.09" r="23.49"/></clipPath></defs><g id="Cycle_Rides" data-name="Cycle Rides"><circle class="cls-2" cx="24.09" cy="24.09" r="23.49"/><g class="cls-3"><path class="cls-4" d="M32.49,2a4.58,4.58,0,0,1,.38.67c.4,1.17.79,2.34,1.18,3.52.18.54,0,.85-.54,1-1.44.48-1.51.44-2-1l-.93-2.79c-.2-.62-.06-.9.57-1.09C31.58,2.22,32,2.13,32.49,2Z"/><path class="cls-4" d="M41.74.9a5,5,0,0,1,.38.65c.41,1.17.8,2.35,1.18,3.53.18.56,0,.84-.53,1-1.29.4-1.53.58-2-1-.28-.95-.63-1.89-.94-2.84-.2-.62,0-.9.57-1.08C40.83,1.09,41.28,1,41.74.9Z"/><path class="cls-4" d="M36.56,7.1a3.46,3.46,0,0,1,.35.49,6.51,6.51,0,0,1,.27.78c.19.6,0,.9-.57,1.09l-3.42,1c-.66.2-.92.06-1.15-.58-.5-1.37-.47-1.45.93-1.87,1-.29,1.91-.59,2.88-.86A3.22,3.22,0,0,1,36.56,7.1Z"/><path class="cls-4" d="M33.68,24.41a2.62,2.62,0,0,1-.47.32c-.32.12-.65.21-1,.3a.69.69,0,0,1-.9-.48c-.41-1.22-.83-2.45-1.22-3.68a.66.66,0,0,1,.51-.95c1.28-.39,1.56-.67,2.05,1,.28.94.63,1.86.92,2.8A3.71,3.71,0,0,1,33.68,24.41Z"/><path class="cls-4" d="M20.38,41.73a3.32,3.32,0,0,1-.61.38c-1.21.38-2.44.75-3.66,1.1-.53.15-.79,0-1-.54-.54-1.41-.48-1.53.94-2l2.82-.86c.65-.19.94,0,1.15.59C20.16,40.86,20.26,41.28,20.38,41.73Z"/><path class="cls-4" d="M17.15,39.54a2.62,2.62,0,0,1-1.71.64c-.49,0-.61-.43-.73-.81l-1.05-3.14c-.25-.76-.12-1,.62-1.23l.55-.16c.62-.18.89,0,1.1.58.39,1.15.78,2.29,1.14,3.44A3.16,3.16,0,0,1,17.15,39.54Z"/><path class="cls-4" d="M26.43,38.46a4.39,4.39,0,0,1-.72.36c-1.36.44-1.42.4-1.87-.94-.32-1-.65-1.93-1-2.89-.2-.62-.05-.89.56-1.09,1.43-.45,1.48-.42,1.94,1,.31.93.64,1.86.93,2.79A4.25,4.25,0,0,1,26.43,38.46Z"/><path class="cls-4" d="M26.86,20.89a4.3,4.3,0,0,1-.69.37c-1.38.45-1.45.41-1.9-1-.32-.95-.64-1.89-.95-2.84-.21-.65-.07-.9.59-1.12,1.39-.44,1.44-.42,1.9,1,.33,1,.65,1.92,1,2.89A3.31,3.31,0,0,1,26.86,20.89Z"/><path class="cls-4" d="M17.17,53.13a3.64,3.64,0,0,1-.38-.64q-.62-1.77-1.2-3.57c-.17-.52,0-.81.52-1,1.44-.5,1.55-.44,2,1L19,51.66c.24.7.1,1-.62,1.18C18,53,17.61,53,17.17,53.13Z"/><path class="cls-4" d="M29.18,21.13A2.1,2.1,0,0,1,29.92,23a1,1,0,0,1-.5.4c-1.18.38-2.37.73-3.56,1.09A.77.77,0,0,1,24.78,24c-.51-1.41-.48-1.48.94-1.91.94-.28,1.88-.57,2.83-.84A2.67,2.67,0,0,1,29.18,21.13Z"/><path class="cls-4" d="M18,46.43a4,4,0,0,1-.68.37c-1.18.37-2.37.73-3.56,1.07-.55.17-.83,0-1-.53-.54-1.45-.5-1.52,1-2l2.77-.83c.67-.2,1-.06,1.17.61C17.74,45.56,17.84,46,18,46.43Z"/><path class="cls-4" d="M27.62,27.76a4.07,4.07,0,0,1-.65.36c-1.18.37-2.36.72-3.55,1.07-.57.17-.83,0-1-.53-.54-1.45-.51-1.51,1-2l2.57-.78c.94-.28,1.15-.18,1.44.74C27.47,27,27.53,27.36,27.62,27.76Z"/><path class="cls-4" d="M22.77,20.7a3.16,3.16,0,0,1,.4.64c.42,1.19.81,2.39,1.2,3.59a.67.67,0,0,1-.49,1c-1.33.41-1.58.63-2.07-1-.28-.94-.62-1.86-.92-2.8-.19-.6-.06-.88.54-1.06C21.86,20.9,22.3,20.81,22.77,20.7Z"/><path class="cls-4" d="M41,10.37c-.19.14-.3.29-.45.34-1.44.45-1.69.7-2.17-.93-.28-.94-.62-1.86-.93-2.79-.21-.64-.06-.91.59-1.12,1.39-.44,1.46-.41,1.91,1,.31,1,.64,1.89.94,2.84A5.22,5.22,0,0,1,41,10.37Z"/><path class="cls-4" d="M27.28,37.57a2.16,2.16,0,0,1-.73-1.91,1,1,0,0,1,.5-.4c1.2-.38,2.4-.74,3.61-1.1a.71.71,0,0,1,1,.48c.5,1.4.65,1.6-.94,2-.95.25-1.89.56-2.83.83A2.94,2.94,0,0,1,27.28,37.57Z"/><path class="cls-4" d="M48.14,1.45a2.31,2.31,0,0,1,.75,1.89,1,1,0,0,1-.49.41c-1.2.38-2.41.74-3.61,1.1a.74.74,0,0,1-1-.54c-.43-1.21-.65-1.54.95-2,1-.25,1.88-.57,2.82-.84A2.67,2.67,0,0,1,48.14,1.45Z"/><path class="cls-4" d="M29.28,16.21a3.18,3.18,0,0,1-.55.34c-1.28.39-1.58.68-2.07-1-.27-.94-.62-1.86-.92-2.79-.21-.63-.07-.89.55-1.09,1.42-.46,1.49-.43,2,1,.31.93.63,1.85.93,2.79A3.68,3.68,0,0,1,29.28,16.21Z"/><path class="cls-4" d="M32.47,18.39a3.4,3.4,0,0,1-.63.39l-3.62,1.09a.73.73,0,0,1-1-.5c-.48-1.38-.66-1.59,1-2,.93-.26,1.85-.55,2.78-.83.66-.19.95,0,1.17.63C32.27,17.54,32.36,18,32.47,18.39Z"/><path class="cls-4" d="M34.56,23.56a2.09,2.09,0,0,1-.74-1.91,1,1,0,0,1,.5-.4c1.2-.38,2.4-.75,3.61-1.1a.74.74,0,0,1,1,.53c.55,1.43.5,1.54-1,2-.94.28-1.88.57-2.82.84A2.85,2.85,0,0,1,34.56,23.56Z"/><path class="cls-4" d="M12.31,48.87a2.54,2.54,0,0,1-1.7.65c-.48,0-.61-.4-.74-.79-.35-1.08-.72-2.15-1.08-3.23-.22-.68-.08-.93.61-1.14,1.38-.43,1.43-.4,1.89,1,.31.95.64,1.89.94,2.84A3.16,3.16,0,0,1,12.31,48.87Z"/><path class="cls-4" d="M20,51.59a2.17,2.17,0,0,1-.74-1.91,1,1,0,0,1,.5-.41c1.2-.38,2.41-.74,3.62-1.09.53-.16.81,0,1,.52.56,1.44.51,1.54-1,2-.92.28-1.84.57-2.77.83A3.66,3.66,0,0,1,20,51.59Z"/><path class="cls-4" d="M19.59,34.91a5.35,5.35,0,0,1-.7.37c-1.36.44-1.43.4-1.87-.93l-1-2.84c-.22-.68-.08-.94.6-1.16,1.38-.44,1.43-.41,1.89,1,.32,1,.64,1.89.94,2.84A3.9,3.9,0,0,1,19.59,34.91Z"/><path class="cls-4" d="M36.08,19.76a2.65,2.65,0,0,1-.44.3,8.1,8.1,0,0,1-1,.3.67.67,0,0,1-.87-.44c-.44-1.26-.85-2.52-1.27-3.78a.67.67,0,0,1,0-.31c.23-.77,1-.66,1.53-.84s.7.12.83.51c.41,1.23.82,2.46,1.22,3.69A2.62,2.62,0,0,1,36.08,19.76Z"/><path class="cls-4" d="M29.29,29.79a4.91,4.91,0,0,1-.42-.69c-.4-1.16-.78-2.32-1.16-3.49-.18-.56,0-.84.52-1,1.43-.49,1.52-.45,2,1,.32.94.64,1.89.95,2.85.19.59.05.88-.54,1.05S29.76,29.68,29.29,29.79Z"/><path class="cls-4" d="M20.45,33.91A2.29,2.29,0,0,1,19.7,32a1,1,0,0,1,.51-.39c1.2-.38,2.41-.74,3.62-1.1a.73.73,0,0,1,1,.53c.54,1.42.48,1.54-1,2-.92.27-1.85.56-2.77.82A3.68,3.68,0,0,1,20.45,33.91Z"/><path class="cls-4" d="M21.56,47.75a2.64,2.64,0,0,1-1.71.64c-.43,0-.6-.37-.72-.76-.35-1.1-.73-2.19-1.09-3.29-.21-.63-.07-.89.56-1.09,1.41-.47,1.47-.43,1.94,1,.32,1,.64,1.89.94,2.85A3,3,0,0,1,21.56,47.75Z"/><path class="cls-4" d="M24,43.1a3.57,3.57,0,0,1-.65.36c-1.43.48-1.49.44-2-1-.3-.94-.62-1.86-.93-2.79-.21-.65-.07-.92.58-1.13,1.4-.44,1.46-.41,1.91,1,.31.95.64,1.89.95,2.84A4.84,4.84,0,0,1,24,43.1Z"/><path class="cls-4" d="M20.35,25.38a3,3,0,0,1,.39.6c.41,1.19.81,2.38,1.2,3.58.18.55,0,.84-.55,1-1.44.48-1.49.45-2-1-.31-.91-.62-1.83-.92-2.75-.23-.72-.11-1,.63-1.17C19.52,25.55,19.94,25.47,20.35,25.38Z"/><path class="cls-4" d="M34.9-2.64a3.38,3.38,0,0,1,.37.6q.61,1.79,1.2,3.57c.18.55,0,.84-.53,1-1.43.49-1.52.44-2-1L33-1.24c-.2-.61-.06-.9.57-1.08C34-2.45,34.45-2.53,34.9-2.64Z"/><path class="cls-4" d="M41.85,9.55a2.06,2.06,0,0,1-.77-1.9,1.09,1.09,0,0,1,.54-.43c1.17-.37,2.34-.72,3.52-1.06a.77.77,0,0,1,1.08.56c.52,1.41.48,1.49-1,1.93l-2.82.84A2.81,2.81,0,0,1,41.85,9.55Z"/><path class="cls-4" d="M30.13,15.23a2.33,2.33,0,0,1-.75-1.92.85.85,0,0,1,.46-.38c1.25-.4,2.5-.77,3.76-1.14a.7.7,0,0,1,.9.47l0,.05c.4,1.25.73,1.58-1,2-.95.25-1.88.57-2.82.84A2.85,2.85,0,0,1,30.13,15.23Z"/><path class="cls-4" d="M37,18.9A2.14,2.14,0,0,1,36.24,17a1,1,0,0,1,.49-.4c1.2-.38,2.41-.74,3.62-1.09.54-.16.81,0,1,.52.54,1.46.51,1.53-1,2-.92.28-1.84.57-2.77.83A3.66,3.66,0,0,1,37,18.9Z"/><path class="cls-4" d="M39.4,14.22a2.16,2.16,0,0,1-.75-1.88,1,1,0,0,1,.52-.43c1.2-.39,2.41-.75,3.62-1.1a.7.7,0,0,1,1,.5c.45,1.33.71,1.57-1,2-.93.25-1.85.56-2.78.83A3.18,3.18,0,0,1,39.4,14.22Z"/><path class="cls-4" d="M32.13,28.22a2.2,2.2,0,0,1-.75-1.87,1.08,1.08,0,0,1,.53-.44c1.2-.38,2.41-.74,3.62-1.09a.71.71,0,0,1,1,.5c.46,1.34.68,1.58-1,2-1,.25-1.88.57-2.82.84A2.1,2.1,0,0,1,32.13,28.22Z"/><path class="cls-4" d="M29.72,12.23a4.4,4.4,0,0,1-.39-.62c-.41-1.19-.8-2.39-1.19-3.58a.67.67,0,0,1,.51-1c1.29-.42,1.57-.58,2,1,.28,1,.63,1.9.93,2.86.18.56,0,.85-.53,1S30.19,12.12,29.72,12.23Z"/><path class="cls-4" d="M36.54,15.72a2.91,2.91,0,0,1-.38-.59c-.41-1.17-.8-2.35-1.18-3.53-.19-.56,0-.85.52-1,1.44-.49,1.52-.45,2,1,.26.75.51,1.51.76,2.26.44,1.34.42,1.38-1,1.78A4.49,4.49,0,0,1,36.54,15.72Z"/><path class="cls-4" d="M27.17,28.91a3.41,3.41,0,0,1,.4.6c.41,1.21.82,2.42,1.21,3.64a.65.65,0,0,1-.5,1c-1.3.41-1.57.64-2.06-1-.29-1-.62-1.87-.92-2.81-.2-.59-.05-.87.55-1.05C26.28,29.11,26.72,29,27.17,28.91Z"/><path class="cls-4" d="M41.38-2.16a2.23,2.23,0,0,1,.69,1.75,1,1,0,0,1-.53.49c-1.21.4-2.43.76-3.65,1.11a.71.71,0,0,1-1-.51c-.57-1.45-.51-1.56,1-2,.91-.27,1.81-.56,2.73-.8A3.21,3.21,0,0,1,41.38-2.16Z"/><path class="cls-4" d="M29.71,32.91A2.15,2.15,0,0,1,29,31a1,1,0,0,1,.5-.4c1.2-.38,2.4-.74,3.61-1.1.53-.15.8,0,1,.54.55,1.45.51,1.53-1,2-.92.28-1.85.57-2.77.83A3.68,3.68,0,0,1,29.71,32.91Z"/><path class="cls-4" d="M21.91,35.14A2.15,2.15,0,0,1,22.67,37a1.06,1.06,0,0,1-.52.44c-1.18.38-2.38.74-3.57,1.09a.76.76,0,0,1-1-.54c-.55-1.39-.48-1.52.93-2,.94-.29,1.88-.58,2.83-.84A2.65,2.65,0,0,1,21.91,35.14Z"/><path class="cls-4" d="M22.34,46.94A3.07,3.07,0,0,1,22,46.4a5.78,5.78,0,0,1-.28-.83.69.69,0,0,1,.49-1c1.22-.38,2.44-.74,3.67-1.1a.69.69,0,0,1,1,.51c.46,1.36.67,1.57-1,2-.94.25-1.85.56-2.78.83A5.05,5.05,0,0,1,22.34,46.94Z"/><path class="cls-4" d="M35,5.88a2.1,2.1,0,0,1-.78-1.94,1,1,0,0,1,.48-.36c1.21-.38,2.44-.75,3.66-1.11a.73.73,0,0,1,1,.51c.43,1.26.72,1.58-1,2-.93.24-1.84.56-2.77.82A2.83,2.83,0,0,1,35,5.88Z"/><path class="cls-4" d="M14.74,44.23a5.26,5.26,0,0,1-.51.33c-.28.1-.56.18-.84.26a.74.74,0,0,1-1-.53c-.41-1.19-.81-2.38-1.2-3.58-.17-.53,0-.8.52-1,1.44-.49,1.56-.44,2,1,.31.93.63,1.86.92,2.8A3.93,3.93,0,0,1,14.74,44.23Z"/><path class="cls-4" d="M24.9,42.24a2.05,2.05,0,0,1-.77-1.89,1,1,0,0,1,.53-.44c1.18-.37,2.37-.72,3.57-1.07a.73.73,0,0,1,1,.51c.46,1.3.67,1.57-.94,2-.95.25-1.88.57-2.83.84A2.74,2.74,0,0,1,24.9,42.24Z"/><path class="cls-4" d="M42.56-1.65c1,.5,1.95.94,2.83,1.51A1.45,1.45,0,0,1,45.77,1c0,.2-.36.48-.61.57-1.4.49-1.49.44-1.94-1C43-.16,42.79-.88,42.56-1.65Z"/></g></g></svg>