<svg xmlns="http://www.w3.org/2000/svg" viewBox="0 0 48.19 48.19"><defs><style>.cls-1{fill:#7aa14b;}</style></defs><g id="Walks"><path class="cls-1" d="M46.49,17a1.18,1.18,0,0,1-.11.19c-.64,1.51-.82,1.58-2.09.56A10.94,10.94,0,0,1,42.61,16c-.66-.84-.25-3.1.65-3.76a.74.74,0,0,1,.71,0l.87.8a24,24,0,0,0-2.61-3.91,1.29,1.29,0,0,1-1,.45c-1.13-.26-2.23-.67-3.34-1-1.73-1-1.77-1.24-.27-2.63.22-.2.45-.38.67-.57A24.62,24.62,0,0,0,36,3.86c-.72-.09-1.47-.37-2.34-.57a6.14,6.14,0,0,1,.45-.43A23.49,23.49,0,0,0,12.77,44.68a15.9,15.9,0,0,1,.62-3.47,7.73,7.73,0,0,1,.38-.87,6.23,6.23,0,0,1,2,2.9c.43,1.06.82,2.13,1.14,3.21a20.71,20.71,0,0,0,2.49.66,2.14,2.14,0,0,1-.29-1,43.8,43.8,0,0,1,1.22-4.93,18.9,18.9,0,0,1,3.87-6.91,3.55,3.55,0,0,1,1-.53c.12.38.39.78.35,1.14a19.78,19.78,0,0,1-.65,3.43c-.52,1.62-1.2,3.19-1.85,4.88-.82,1.14-1.65,2.36-2.56,3.52a1.94,1.94,0,0,1-.84.45,24,24,0,0,0,4.51.44c.55,0,1.08,0,1.62-.06a18.17,18.17,0,0,1,2.22-.26h0A23.48,23.48,0,0,0,46.49,17ZM40.7,11a1,1,0,0,1,.51,1.25,9.73,9.73,0,0,1-.62,1.45,1.23,1.23,0,0,1-1.43.59A13.71,13.71,0,0,1,37.61,14c-1.23-.43-2.45-.91-3.55-1.33-1.16-.58-1.25-.9-.56-1.86a5.88,5.88,0,0,1,1-1.19,1.72,1.72,0,0,1,1.11-.41A13.31,13.31,0,0,1,40.7,11Zm-6.8,8c-.88-.25-1.75-.57-2.63-.85-1.32-.78-1.53-1.25-1.07-2.61a2.31,2.31,0,0,1,2.61-1.81,13.91,13.91,0,0,1,5,1.59c1.09.58,1.23,1.07.46,2.05C36.84,19.18,36,19.61,33.9,19Zm-.26,3.23c-.41.41-.82.83-1.27,1.2a3,3,0,0,1-4.1-.62A1.15,1.15,0,0,1,28.1,22,12.13,12.13,0,0,1,29,19.62a1.14,1.14,0,0,1,1-.31c1.14.23,2.25.57,3.38.87C34.5,20.92,34.57,21.3,33.64,22.23ZM32.53,3.8c.61-.21,1.44.18,2.16.32a4.74,4.74,0,0,1,.79.3c1,.4,1.06.69.35,1.48a5.24,5.24,0,0,1-6.69.67A7.73,7.73,0,0,1,32.53,3.8ZM26.37,9.33c.16-.23.4-.4.54-.64a2.05,2.05,0,0,1,2.21-1.14,20.51,20.51,0,0,1,2.94.85c.48.16.57.53.24.91a23.45,23.45,0,0,1-2,2.21c-.91.81-2.06.41-3.11.34a13.49,13.49,0,0,1-2.11-.5C25.54,10.64,26,10,26.37,9.33Zm-3.61,7.14c.34-.91.56-1.87.95-2.75.59-1.34.57-1.18,2.13-1.16a6.84,6.84,0,0,1,1.54.28c1.27.34,1.49.69,1.19,2-.11.48-.29.95-.44,1.43-.5,1.24-1.6,1.43-2.69,1.49a7.7,7.7,0,0,1-2.12-.3C22.84,17.34,22.54,17.06,22.76,16.47Zm-1.28,6A31.05,31.05,0,0,1,22,19.26a1.2,1.2,0,0,1,.88-.7c1.15,0,2.3.13,3.45.21.25.47.57.79.53,1.06a32.72,32.72,0,0,1-.66,3.39.87.87,0,0,1-.64.44,20.89,20.89,0,0,1-3,0A1.06,1.06,0,0,1,21.48,22.47ZM17.4,44.18a5.43,5.43,0,0,1-.75-.94c-.6-1.15-1.09-2.37-1.74-3.5A2.41,2.41,0,0,1,15,37.17c.33-.62.69-1.22,1.11-2C18.46,38.46,19,42.17,17.4,44.18Zm3.15-6.93-.21,0-.35.67c-.59,1.07-.93,1.13-1.64.15a22.39,22.39,0,0,1-1.63-2.69,1.18,1.18,0,0,1,0-1c.51-.79,1.11-1.52,1.67-2.28a.62.62,0,0,1,1.11,0A8.79,8.79,0,0,1,21,34.72,6.89,6.89,0,0,1,20.55,37.25Zm3.57-6.62-.12,0c-.47.76-.9,1.55-1.4,2.29s-.94.7-1.38.06a24,24,0,0,1-1.44-2.58.85.85,0,0,1,0-.63c.5-1.36,1.06-2.7,1.56-4.06a1.1,1.1,0,0,1,1.21-.78,18.67,18.67,0,0,1,2.37.26.8.8,0,0,1,.66,1.13C25.11,27.74,24.61,29.19,24.12,30.63Zm4.94,14.86a1.52,1.52,0,0,1-.94.74c-1.4.32-2.83.54-4.25.77a3.13,3.13,0,0,1-.84-.11c.59-3,5.38-6.5,7.79-5.61C30.22,42.73,29.69,44.13,29.06,45.49Zm2.2-6.35a1.91,1.91,0,0,1-1,1,19.81,19.81,0,0,1-3,1.24c-.94.29-1.38-.11-1.2-1s.51-2,.77-3c.86-1.59,2.35-2.08,3.92-2.45a.7.7,0,0,1,.94.81A19.07,19.07,0,0,1,31.26,39.14Zm-.32-5c-.83.25-1.66.48-2.5.69-.55.14-1,.05-.78-.69.49-1.59,1-3.17,1.43-4.44.76-1.1,1.28-1.93,1.87-2.7s1.15-.7,1.64.11c.29.47.62.91.88,1.39A3.49,3.49,0,0,1,34,29.7C34.1,31.17,32.35,33.68,30.94,34.11Zm7.41-7.88c-.81.62-1.59,1.28-2.41,1.89-.42.32-.86.8-1.32.38a3.79,3.79,0,0,1-1.8-2.59c-.21-1,.48-1.57,1-2.15a8.54,8.54,0,0,1,1.92-1.44c.7-.42,2.16.16,2.75,1a5.13,5.13,0,0,1,.36.65C39.46,25.15,39.38,25.45,38.35,26.23Zm6.2-5.53A10.53,10.53,0,0,1,41.06,24c-.88.5-1.38-.29-2-.71a3.76,3.76,0,0,1-.69-.83c-.89-1.18-.87-1.83.1-2.94.49-.56,1-1.12,1.52-1.66a1.62,1.62,0,0,1,2.3-.33c.7.64,1.41,1.25,2.08,1.9A.92.92,0,0,1,44.55,20.7Z"/></g></svg>