<svg id="Layer_1" data-name="Layer 1" xmlns="http://www.w3.org/2000/svg" viewBox="0 0 41.83 42.05"><defs><style>.cls-1,.cls-2,.cls-3{stroke:#000;stroke-miterlimit:10;}.cls-1,.cls-2{stroke-width:1.42px;}.cls-2{fill:#fff;}.cls-3{stroke-width:0.71px;}</style></defs><path class="cls-1" d="M123.69,263.57H87.54a2.13,2.13,0,0,1-2.13-2.12V225.06a2.14,2.14,0,0,1,2.13-2.13h29l9.32,8.89v29.63A2.13,2.13,0,0,1,123.69,263.57Z" transform="translate(-84.7 -222.23)"/><path class="cls-2" d="M93.66,222.94v13.48a2.13,2.13,0,0,0,2.12,2.13h19.16a2.14,2.14,0,0,0,2.13-2.13V223.48l-.57-.55Z" transform="translate(-84.7 -222.23)"/><path class="cls-2" d="M93.66,263.55V247.78a2.13,2.13,0,0,1,2.12-2.13h19.84a2.14,2.14,0,0,1,2.13,2.13v15.77Z" transform="translate(-84.7 -222.23)"/><rect class="cls-3" x="24.46" y="4.82" width="3.96" height="7.99"/></svg>